<svg preserveAspectRatio="none" width="100%" height="100%" overflow="visible" style="display: block;" viewBox="0 0 16 18" fill="none" xmlns="http://www.w3.org/2000/svg">
<path id="Vector" d="M15.5 8.41667V6.16667C15.5 4.76653 15.5 4.06647 15.2275 3.53169C14.9878 3.06128 14.6054 2.67883 14.135 2.43915C13.6002 2.16667 12.9002 2.16667 11.5 2.16667H4.5C3.09987 2.16667 2.3998 2.16667 1.86503 2.43915C1.39462 2.67883 1.01217 3.06128 0.772484 3.53169C0.5 4.06647 0.5 4.76653 0.5 6.16667V13.1667C0.5 14.5668 0.5 15.2668 0.772484 15.8017C1.01217 16.2721 1.39462 16.6545 1.86503 16.8942C2.3998 17.1667 3.09987 17.1667 4.5 17.1667H8.41667M15.5 7.16667H0.5M11.3333 0.5V3.83333M4.66667 0.5V3.83333M13 16.3333V11.3333M10.5 13.8333H15.5" stroke="var(--stroke-0, white)" stroke-linecap="round" stroke-linejoin="round"/>
</svg>
