<svg preserveAspectRatio="none" width="100%" height="100%" overflow="visible" style="display: block;" viewBox="0 0 18 16" fill="none" xmlns="http://www.w3.org/2000/svg">
<path id="Vector" d="M15.9167 4.66667V11.5C15.9167 12.9002 15.9167 13.6002 15.6442 14.135C15.4045 14.6054 15.0221 14.9878 14.5517 15.2275C14.0168 15.5 13.3168 15.5 11.9167 15.5H5.75C4.34987 15.5 3.6498 15.5 3.11503 15.2275C2.64462 14.9878 2.26217 14.6054 2.02248 14.135C1.75 13.6002 1.75 12.9002 1.75 11.5V4.66667M1.83333 0.500001H15.8333C16.3001 0.500001 16.5334 0.500001 16.7117 0.590826C16.8685 0.670726 16.9959 0.79821 17.0758 0.95501C17.1667 1.13327 17.1667 1.36663 17.1667 1.83333V3.33333C17.1667 3.80004 17.1667 4.0334 17.0758 4.21166C16.9959 4.36846 16.8685 4.49594 16.7117 4.57584C16.5334 4.66667 16.3001 4.66667 15.8333 4.66667H1.83333C1.36663 4.66667 1.13327 4.66667 0.95501 4.57584C0.79821 4.49594 0.670726 4.36846 0.590826 4.21166C0.500001 4.0334 0.500001 3.80004 0.500001 3.33333V1.83333C0.500001 1.36663 0.500001 1.13327 0.590826 0.95501C0.670726 0.79821 0.79821 0.670726 0.95501 0.590826C1.13327 0.500001 1.36663 0.500001 1.83333 0.500001ZM6.83333 7.58333H10.8333C11.3001 7.58333 11.5334 7.58333 11.7117 7.67417C11.8685 7.75408 11.9959 7.8815 12.0758 8.03833C12.1667 8.21658 12.1667 8.44992 12.1667 8.91667V9.58333C12.1667 10.0501 12.1667 10.2834 12.0758 10.4617C11.9959 10.6185 11.8685 10.7459 11.7117 10.8258C11.5334 10.9167 11.3001 10.9167 10.8333 10.9167H6.83333C6.36663 10.9167 6.13327 10.9167 5.95501 10.8258C5.79821 10.7459 5.67073 10.6185 5.59083 10.4617C5.5 10.2834 5.5 10.0501 5.5 9.58333V8.91667C5.5 8.44992 5.5 8.21658 5.59083 8.03833C5.67073 7.8815 5.79821 7.75408 5.95501 7.67417C6.13327 7.58333 6.36663 7.58333 6.83333 7.58333Z" stroke="var(--stroke-0, white)" stroke-linecap="round" stroke-linejoin="round"/>
</svg>
