<svg preserveAspectRatio="none" width="100%" height="100%" overflow="visible" style="display: block;" viewBox="0 0 18 16" fill="none" xmlns="http://www.w3.org/2000/svg">
<path id="Vector" d="M17.1667 15.5V13.8333C17.1667 12.2802 16.1043 10.9751 14.6667 10.605M11.75 0.7423C12.9716 1.23679 13.8333 2.43442 13.8333 3.83333C13.8333 5.23224 12.9716 6.42992 11.75 6.92433M13 15.5C13 13.9468 13 13.1703 12.7462 12.5577C12.4079 11.741 11.759 11.0921 10.9422 10.7537C10.3297 10.5 9.55317 10.5 8 10.5H5.5C3.94686 10.5 3.17029 10.5 2.55773 10.7537C1.74096 11.0921 1.09205 11.741 0.753733 12.5577C0.5 13.1703 0.5 13.9468 0.5 15.5M10.0833 3.83333C10.0833 5.67428 8.59092 7.16667 6.75 7.16667C4.90905 7.16667 3.41667 5.67428 3.41667 3.83333C3.41667 1.99238 4.90905 0.5 6.75 0.5C8.59092 0.5 10.0833 1.99238 10.0833 3.83333Z" stroke="var(--stroke-0, white)" stroke-linecap="round" stroke-linejoin="round"/>
</svg>
