<?xml version="1.0" encoding="UTF-8" standalone="no"?>
<!DOCTYPE svg PUBLIC "-//W3C//DTD SVG 1.1//EN" "http://www.w3.org/Graphics/SVG/1.1/DTD/svg11.dtd">
<svg width="100%" height="100%" viewBox="0 0 3711 3577" version="1.1" xmlns="http://www.w3.org/2000/svg" xmlns:xlink="http://www.w3.org/1999/xlink" xml:space="preserve" xmlns:serif="http://www.serif.com/" style="fill-rule:evenodd;clip-rule:evenodd;stroke-linejoin:round;stroke-miterlimit:2;">
    <g transform="matrix(1,0,0,1,-394.916667,-461.57875)">
        <g transform="matrix(4.166667,0,0,4.166667,0,0)">
            <g transform="matrix(1,0,0,1,954.347,697.3619)">
                <path d="M0,-314.724C1.386,-317.114 2.185,-319.865 2.185,-322.799C2.185,-330.542 -3.326,-337.024 -10.761,-338.835C-11.559,-339.029 -12.372,-339.188 -13.21,-339.27C-13.785,-339.326 -14.368,-339.355 -14.958,-339.355C-21.07,-339.355 -26.42,-336.256 -29.455,-331.607C-29.726,-331.192 -29.979,-330.768 -30.212,-330.329C-31.411,-328.069 -32.1,-325.514 -32.1,-322.799C-32.1,-314.764 -26.171,-308.07 -18.308,-306.564C0.33,-260.496 10.565,-210.362 10.565,-157.919C10.565,67.757 -178.866,250.704 -412.54,250.704C-646.214,250.704 -835.644,67.757 -835.644,-157.919C-835.644,-383.595 -646.214,-566.541 -412.54,-566.541C-264.417,-566.541 -134.075,-493.029 -58.487,-381.723L-41.409,-391.885C-120.89,-509.117 -258.233,-586.583 -414.347,-586.583C-660.235,-586.583 -859.567,-394.414 -859.567,-157.362C-859.567,79.69 -660.235,271.859 -414.347,271.859C-168.459,271.859 30.873,79.69 30.873,-157.362C30.873,-212.912 19.927,-265.998 0,-314.724" style="fill-rule:nonzero;"/>
            </g>
        </g>
        <g transform="matrix(4.166667,0,0,4.166667,0,0)">
            <g transform="matrix(1,0,0,1,538.8966,196.5121)">
                <path d="M0,684.749C-197.137,684.749 -356.948,531.712 -356.948,342.931C-356.948,154.15 -197.137,1.113 0,1.113C197.137,1.113 356.948,154.15 356.948,342.931C356.948,531.712 197.137,684.749 0,684.749M1.655,-40.083C-218.334,-40.083 -396.671,131.149 -396.671,342.374C-396.671,553.6 -218.334,724.832 1.655,724.832C221.644,724.832 399.981,553.6 399.981,342.374C399.981,131.149 221.644,-40.083 1.655,-40.083" style="fill-rule:nonzero;"/>
            </g>
        </g>
        <g transform="matrix(4.166667,0,0,4.166667,0,0)">
            <g transform="matrix(1,0,0,1,913.3519,309.2062)">
                <path d="M0,-3.976L-0.414,-3.73C0.427,-2.49 1.263,-1.248 2.09,0L0,-3.976Z" style="fill-rule:nonzero;"/>
            </g>
        </g>
        <g transform="matrix(4.166667,0,0,4.166667,0,0)">
            <g transform="matrix(1,0,0,1,359.5949,630.4786)">
                <path d="M0,-191.991L0,-169.923L7.817,-169.141C11.134,-168.81 14.312,-167.498 16.76,-165.236C19.18,-162.999 21.56,-159.556 22.068,-154.476L22.068,3.31L44.938,3.31L44.938,-155.88C44.938,-155.88 46.343,-195.301 0,-191.991" style="fill-rule:nonzero;"/>
            </g>
        </g>
        <g transform="matrix(4.166667,0,0,4.166667,0,0)">
            <g transform="matrix(1,0,0,1,539.4483,563.1707)">
                <path d="M0,-51.859C0,-44.577 -5.958,-38.618 -13.241,-38.618L-52.963,-38.618C-60.245,-38.618 -66.204,-44.577 -66.204,-51.859L-66.204,-88.271C-66.204,-95.553 -60.245,-101.512 -52.963,-101.512L-13.241,-101.512C-5.958,-101.512 0,-95.553 0,-88.271L0,-51.859ZM0,34.206C0,41.488 -5.958,47.447 -13.241,47.447L-52.963,47.447C-60.245,47.447 -66.204,41.488 -66.204,34.206L-66.204,-2.206C-66.204,-9.489 -60.245,-15.447 -52.963,-15.447L-13.241,-15.447C-5.958,-15.447 0,-9.489 0,-2.206L0,34.206ZM-8.376,-123.58L-56.725,-123.58C-77.11,-123.58 -93.789,-106.901 -93.789,-86.516L-93.789,33.453C-93.789,54.501 -76.568,71.721 -55.521,71.721L-11.535,71.721C8.16,71.721 24.275,55.607 24.275,35.911L24.275,-90.929C24.275,-108.887 9.582,-123.58 -8.376,-123.58" style="fill-rule:nonzero;"/>
            </g>
        </g>
        <g transform="matrix(4.166667,0,0,4.166667,0,0)">
            <g transform="matrix(1,0,0,1,703.8542,563.1707)">
                <path d="M0,-88.271L0,34.206C0,41.488 -5.958,47.447 -13.241,47.447L-54.066,47.447C-61.349,47.447 -67.307,41.488 -67.307,34.206L-67.307,-88.271C-67.307,-95.553 -61.349,-101.512 -54.066,-101.512L-13.241,-101.512C-5.958,-101.512 0,-95.553 0,-88.271ZM-8.376,-123.58L-56.725,-123.58C-77.11,-123.58 -93.789,-106.901 -93.789,-86.516L-93.789,33.453C-93.789,54.501 -76.568,71.721 -55.521,71.721L-11.535,71.721C8.16,71.721 24.275,55.607 24.275,35.911L24.275,-90.929C24.275,-108.887 9.582,-123.58 -8.376,-123.58" style="fill-rule:nonzero;"/>
            </g>
        </g>
        <g transform="matrix(4.166667,0,0,4.166667,0,0)">
            <g transform="matrix(1,0,0,1,758.1045,413.5523)">
                <path d="M0,12.355C0,16.847 -3.675,20.522 -8.167,20.522L-15.899,20.522C-21.315,20.522 -25.746,16.091 -25.746,10.675L-25.746,2.784C-25.746,-2.632 -21.315,-7.063 -15.899,-7.063L-9.847,-7.063C-4.431,-7.063 0,-2.632 0,2.784L0,12.355ZM-1.576,-13.684L-24.17,-13.684C-28.577,-13.684 -32.182,-10.078 -32.182,-5.671L-32.182,18.027C-32.182,22.433 -28.577,26.039 -24.17,26.039L0.104,26.039C3.587,26.039 6.436,23.189 6.436,19.707L6.436,-5.671C6.436,-10.078 2.831,-13.684 -1.576,-13.684" style="fill-rule:nonzero;"/>
            </g>
        </g>
    </g>
</svg>
